<mxfile host="app.diagrams.net" agent="Mozilla/5.0 (Windows NT 10.0; Win64; x64) AppleWebKit/537.36 (KHTML, like Gecko) Chrome/134.0.0.0 Safari/537.36 Edg/134.0.0.0" version="26.1.0">
  <diagram name="第 1 页" id="L4ce1Rrvn7hqPBwAT1Oa">
    <mxGraphModel dx="2308" dy="1543" grid="0" gridSize="10" guides="1" tooltips="1" connect="1" arrows="1" fold="1" page="0" pageScale="1" pageWidth="827" pageHeight="1169" math="0" shadow="0">
      <root>
        <mxCell id="0" />
        <mxCell id="1" parent="0" />
        <mxCell id="I-i7RFHFEAs0DxLh_xhu-2" value="&lt;font style=&quot;font-size: 22px;&quot;&gt;基于任务的日志分析&lt;/font&gt;" style="rounded=1;whiteSpace=wrap;html=1;strokeWidth=2;fontSize=20;labelBackgroundColor=none;fillColor=#dae8fc;strokeColor=#6c8ebf;sketch=1;curveFitting=1;jiggle=2;fontFamily=Helvetica;fillStyle=solid;shadow=1;" vertex="1" parent="1">
          <mxGeometry x="-284.5" y="-134" width="240" height="60" as="geometry" />
        </mxCell>
        <mxCell id="I-i7RFHFEAs0DxLh_xhu-4" value="&lt;font style=&quot;font-size: 22px;&quot;&gt;基于指令的日志分析&lt;/font&gt;" style="rounded=1;whiteSpace=wrap;html=1;strokeWidth=2;fontSize=20;labelBackgroundColor=none;fillColor=#dae8fc;strokeColor=#6c8ebf;fillStyle=solid;sketch=1;curveFitting=1;jiggle=2;shadow=1;" vertex="1" parent="1">
          <mxGeometry x="119" y="-137" width="240" height="60" as="geometry" />
        </mxCell>
        <mxCell id="I-i7RFHFEAs0DxLh_xhu-5" value="&lt;font&gt;日志解析&lt;/font&gt;" style="rounded=1;whiteSpace=wrap;html=1;strokeWidth=2;fontSize=20;labelBackgroundColor=none;fillColor=#D5E8D4;strokeColor=#82b366;sketch=1;curveFitting=1;jiggle=2;fontFamily=Helvetica;fillStyle=solid;shadow=1;" vertex="1" parent="1">
          <mxGeometry x="-363" y="-18" width="115" height="56" as="geometry" />
        </mxCell>
        <mxCell id="I-i7RFHFEAs0DxLh_xhu-6" value="&lt;font&gt;异常检测&lt;/font&gt;" style="rounded=1;whiteSpace=wrap;html=1;strokeWidth=2;fontSize=20;labelBackgroundColor=none;fillColor=#D5E8D4;strokeColor=#82b366;sketch=1;curveFitting=1;jiggle=2;fontFamily=Helvetica;fillStyle=solid;shadow=1;" vertex="1" parent="1">
          <mxGeometry x="-222" y="-18" width="115" height="56" as="geometry" />
        </mxCell>
        <mxCell id="I-i7RFHFEAs0DxLh_xhu-7" value="&lt;font&gt;故障诊断&lt;/font&gt;" style="rounded=1;whiteSpace=wrap;html=1;strokeWidth=2;fontSize=20;labelBackgroundColor=none;fillColor=#D5E8D4;strokeColor=#82b366;sketch=1;curveFitting=1;jiggle=2;fontFamily=Helvetica;fillStyle=solid;shadow=1;" vertex="1" parent="1">
          <mxGeometry x="-81" y="-18" width="115" height="56" as="geometry" />
        </mxCell>
        <mxCell id="I-i7RFHFEAs0DxLh_xhu-8" value="" style="endArrow=classic;html=1;rounded=0;strokeWidth=2;fillColor=#f5f5f5;strokeColor=#666666;sketch=1;curveFitting=1;jiggle=2;fontFamily=Helvetica;shadow=1;" edge="1" parent="1">
          <mxGeometry width="50" height="50" relative="1" as="geometry">
            <mxPoint x="-306" y="57" as="sourcePoint" />
            <mxPoint x="-306" y="111" as="targetPoint" />
          </mxGeometry>
        </mxCell>
        <mxCell id="I-i7RFHFEAs0DxLh_xhu-9" value="" style="endArrow=classic;html=1;rounded=0;strokeWidth=2;fillColor=#f5f5f5;strokeColor=#666666;sketch=1;curveFitting=1;jiggle=2;fontFamily=Helvetica;shadow=1;" edge="1" parent="1">
          <mxGeometry width="50" height="50" relative="1" as="geometry">
            <mxPoint x="-165" y="58" as="sourcePoint" />
            <mxPoint x="-165" y="112" as="targetPoint" />
          </mxGeometry>
        </mxCell>
        <mxCell id="I-i7RFHFEAs0DxLh_xhu-10" value="" style="endArrow=classic;html=1;rounded=0;strokeWidth=2;fillColor=#f5f5f5;strokeColor=#666666;sketch=1;curveFitting=1;jiggle=2;fontFamily=Helvetica;shadow=1;" edge="1" parent="1">
          <mxGeometry width="50" height="50" relative="1" as="geometry">
            <mxPoint x="-24" y="58" as="sourcePoint" />
            <mxPoint x="-24" y="112" as="targetPoint" />
          </mxGeometry>
        </mxCell>
        <mxCell id="I-i7RFHFEAs0DxLh_xhu-11" value="&lt;font&gt;模型1&lt;/font&gt;" style="rounded=1;whiteSpace=wrap;html=1;strokeWidth=2;fontSize=20;labelBackgroundColor=none;fillColor=#ffe6cc;strokeColor=#d79b00;sketch=1;curveFitting=1;jiggle=2;fontFamily=Helvetica;fillStyle=solid;shadow=1;" vertex="1" parent="1">
          <mxGeometry x="-363" y="128" width="115" height="56" as="geometry" />
        </mxCell>
        <mxCell id="I-i7RFHFEAs0DxLh_xhu-12" value="&lt;font&gt;模型2&lt;/font&gt;" style="rounded=1;whiteSpace=wrap;html=1;strokeWidth=2;fontSize=20;labelBackgroundColor=none;fillColor=#ffe6cc;strokeColor=#d79b00;sketch=1;curveFitting=1;jiggle=2;fontFamily=Helvetica;fillStyle=solid;shadow=1;" vertex="1" parent="1">
          <mxGeometry x="-222" y="128" width="115" height="56" as="geometry" />
        </mxCell>
        <mxCell id="I-i7RFHFEAs0DxLh_xhu-13" value="&lt;font&gt;模型3&lt;/font&gt;" style="rounded=1;whiteSpace=wrap;html=1;strokeWidth=2;fontSize=20;labelBackgroundColor=none;fillColor=#ffe6cc;strokeColor=#d79b00;sketch=1;curveFitting=1;jiggle=2;fontFamily=Helvetica;fillStyle=solid;shadow=1;" vertex="1" parent="1">
          <mxGeometry x="-81" y="128" width="115" height="56" as="geometry" />
        </mxCell>
        <mxCell id="I-i7RFHFEAs0DxLh_xhu-18" value="解析结果" style="rounded=1;whiteSpace=wrap;html=1;strokeWidth=2;fontSize=20;labelBackgroundColor=none;fillColor=#f8cecc;strokeColor=#b85450;sketch=1;curveFitting=1;jiggle=2;fontFamily=Helvetica;fillStyle=solid;shadow=1;" vertex="1" parent="1">
          <mxGeometry x="-363" y="272" width="115" height="56" as="geometry" />
        </mxCell>
        <mxCell id="I-i7RFHFEAs0DxLh_xhu-19" value="&lt;font&gt;检测结果&lt;/font&gt;" style="rounded=1;whiteSpace=wrap;html=1;strokeWidth=2;fontSize=20;labelBackgroundColor=none;fillColor=#f8cecc;strokeColor=#b85450;sketch=1;curveFitting=1;jiggle=2;fontFamily=Helvetica;fillStyle=solid;shadow=1;" vertex="1" parent="1">
          <mxGeometry x="-222" y="272" width="115" height="56" as="geometry" />
        </mxCell>
        <mxCell id="I-i7RFHFEAs0DxLh_xhu-20" value="&lt;font&gt;诊断结果&lt;/font&gt;" style="rounded=1;whiteSpace=wrap;html=1;strokeWidth=2;fontSize=20;labelBackgroundColor=none;fillColor=#f8cecc;strokeColor=#b85450;sketch=1;curveFitting=1;jiggle=2;fontFamily=Helvetica;fillStyle=solid;shadow=1;" vertex="1" parent="1">
          <mxGeometry x="-81" y="272" width="115" height="56" as="geometry" />
        </mxCell>
        <mxCell id="I-i7RFHFEAs0DxLh_xhu-21" value="" style="endArrow=classic;html=1;rounded=0;strokeWidth=2;fillColor=#f5f5f5;strokeColor=#666666;sketch=1;curveFitting=1;jiggle=2;fontFamily=Helvetica;shadow=1;" edge="1" parent="1">
          <mxGeometry width="50" height="50" relative="1" as="geometry">
            <mxPoint x="-306" y="205" as="sourcePoint" />
            <mxPoint x="-306" y="259" as="targetPoint" />
          </mxGeometry>
        </mxCell>
        <mxCell id="I-i7RFHFEAs0DxLh_xhu-22" value="" style="endArrow=classic;html=1;rounded=0;strokeWidth=2;fillColor=#f5f5f5;strokeColor=#666666;sketch=1;curveFitting=1;jiggle=2;fontFamily=Helvetica;shadow=1;" edge="1" parent="1">
          <mxGeometry width="50" height="50" relative="1" as="geometry">
            <mxPoint x="-165" y="206" as="sourcePoint" />
            <mxPoint x="-165" y="260" as="targetPoint" />
          </mxGeometry>
        </mxCell>
        <mxCell id="I-i7RFHFEAs0DxLh_xhu-23" value="" style="endArrow=classic;html=1;rounded=0;strokeWidth=2;fillColor=#f5f5f5;strokeColor=#666666;sketch=1;curveFitting=1;jiggle=2;fontFamily=Helvetica;shadow=1;" edge="1" parent="1">
          <mxGeometry width="50" height="50" relative="1" as="geometry">
            <mxPoint x="-24" y="206" as="sourcePoint" />
            <mxPoint x="-24" y="260" as="targetPoint" />
          </mxGeometry>
        </mxCell>
        <mxCell id="I-i7RFHFEAs0DxLh_xhu-24" value="&lt;font&gt;日志分析指令&lt;/font&gt;" style="rounded=1;whiteSpace=wrap;html=1;strokeWidth=2;fontSize=20;labelBackgroundColor=none;fillColor=#d5e8d4;strokeColor=#82b366;sketch=1;curveFitting=1;jiggle=2;fontFamily=Helvetica;fillStyle=solid;shadow=1;" vertex="1" parent="1">
          <mxGeometry x="145" y="-18" width="188" height="56" as="geometry" />
        </mxCell>
        <mxCell id="I-i7RFHFEAs0DxLh_xhu-25" value="" style="endArrow=classic;html=1;rounded=0;strokeWidth=2;fillColor=#f5f5f5;strokeColor=#666666;sketch=1;curveFitting=1;jiggle=2;fontFamily=Helvetica;shadow=1;" edge="1" parent="1">
          <mxGeometry width="50" height="50" relative="1" as="geometry">
            <mxPoint x="238.5" y="62" as="sourcePoint" />
            <mxPoint x="238.5" y="116" as="targetPoint" />
          </mxGeometry>
        </mxCell>
        <mxCell id="I-i7RFHFEAs0DxLh_xhu-28" value="&lt;font&gt;多任务模型&lt;/font&gt;" style="rounded=1;whiteSpace=wrap;html=1;strokeWidth=2;fontSize=20;labelBackgroundColor=none;fillColor=#ffe6cc;strokeColor=#d79b00;sketch=1;curveFitting=1;jiggle=2;fontFamily=Helvetica;fillStyle=solid;shadow=1;" vertex="1" parent="1">
          <mxGeometry x="147" y="131" width="187" height="56" as="geometry" />
        </mxCell>
        <mxCell id="I-i7RFHFEAs0DxLh_xhu-29" value="" style="endArrow=classic;html=1;rounded=0;strokeWidth=2;fillColor=#f5f5f5;strokeColor=#666666;sketch=1;curveFitting=1;jiggle=2;fontFamily=Helvetica;shadow=1;" edge="1" parent="1">
          <mxGeometry width="50" height="50" relative="1" as="geometry">
            <mxPoint x="238.5" y="203" as="sourcePoint" />
            <mxPoint x="238.5" y="257" as="targetPoint" />
          </mxGeometry>
        </mxCell>
        <mxCell id="I-i7RFHFEAs0DxLh_xhu-30" value="&lt;font&gt;分析结果&lt;/font&gt;" style="rounded=1;whiteSpace=wrap;html=1;strokeWidth=2;fontSize=20;labelBackgroundColor=none;fillColor=#f8cecc;strokeColor=#b85450;sketch=1;curveFitting=1;jiggle=2;fontFamily=Helvetica;fillStyle=solid;shadow=1;" vertex="1" parent="1">
          <mxGeometry x="149" y="272" width="188" height="56" as="geometry" />
        </mxCell>
        <mxCell id="I-i7RFHFEAs0DxLh_xhu-31" value="" style="endArrow=none;dashed=1;html=1;rounded=0;strokeWidth=2;sketch=1;curveFitting=1;jiggle=2;shadow=1;" edge="1" parent="1">
          <mxGeometry width="50" height="50" relative="1" as="geometry">
            <mxPoint x="72" y="334" as="sourcePoint" />
            <mxPoint x="72" y="-142" as="targetPoint" />
          </mxGeometry>
        </mxCell>
      </root>
    </mxGraphModel>
  </diagram>
</mxfile>
